Coordinates
version=1
nRows=17
nColumns=24
inDegrees=yes

Units are S.I. units (second, meters, Newtons, ...)
Angles are in degrees.

endheader
time	pelvis_tilt	pelvis_list	pelvis_rotation	pelvis_tx	pelvis_ty	pelvis_tz	hip_flexion_r	hip_adduction_r	hip_rotation_r	knee_angle_r	ankle_angle_r	subtalar_angle_r	mtp_angle_r	hip_flexion_l	hip_adduction_l	hip_rotation_l	knee_angle_l	ankle_angle_l	subtalar_angle_l	mtp_angle_l	lumbar_extension	lumbar_bending	lumbar_rotation
      6.51000000	      0.47753354	     -4.81397273	      0.20303146	      2.28947906	      0.70824173	     -0.26717400	      3.22488387	     11.48229673	      9.63664331	    -11.01973663	     14.68111574	    -13.56274047	      0.00000000	     26.98747999	     -0.60139582	      1.26948550	    -67.42131298	      5.44520520	     -7.96635180	      0.00000000	    -17.53506319	      4.11158339	     -0.94416374
      6.52000000	      0.32018233	     -4.46669342	     -0.36954441	      2.29959575	      0.70865767	     -0.26662396	      2.06510448	     11.09580043	     10.49596668	    -10.33758031	     14.99131324	    -13.74096658	      0.00000000	     28.11572445	     -0.47409125	      0.83224547	    -65.31916148	      5.52579530	     -9.33178773	      0.00000000	    -17.71775426	      3.64220735	     -0.54945405
      6.53000000	      0.02678815	     -4.18924275	     -0.87339062	      2.30968184	      0.70862250	     -0.26622362	      1.14380493	     10.76273694	     11.02734860	     -9.76698343	     15.44850829	    -13.74493495	      0.00000000	     29.26228101	     -0.41106905	      0.51425000	    -62.89385516	      5.47458695	    -10.59585995	      0.00000000	    -17.71330686	      3.29871898	     -0.24775304
      6.54000000	     -0.21566375	     -4.00589880	     -1.45266591	      2.31970084	      0.70842333	     -0.26575120	      0.22104214	     10.52134083	     11.59618411	     -9.28888673	     15.88113738	    -13.68986473	      0.00000000	     30.16594729	     -0.52412255	      0.16868630	    -60.10174848	      5.40797693	    -11.71639094	      0.00000000	    -17.80063306	      3.03791612	      0.15610761
      6.55000000	     -0.43514430	     -3.87200672	     -2.00320692	      2.32970878	      0.70803837	     -0.26538172	     -0.68708442	     10.31514971	     12.12311716	     -8.87451564	     16.34661381	    -13.62100532	      0.00000000	     30.83937702	     -0.67451346	     -0.06093775	    -56.91725210	      5.37602912	    -12.58601255	      0.00000000	    -17.91004336	      2.86727497	      0.50560028
      6.56000000	     -0.65277407	     -3.78361166	     -2.52426537	      2.33972933	      0.70746252	     -0.26505806	     -1.57013247	     10.14574518	     12.58702420	     -8.50747799	     16.82534869	    -13.51940221	      0.00000000	     31.29134773	     -0.86074692	     -0.17983052	    -53.32943588	      5.38357142	    -13.24555095	      0.00000000	    -18.01567185	      2.75510160	      0.79845272
      6.57000000	     -0.86242619	     -3.72797200	     -3.02008459	      2.34980324	      0.70673096	     -0.26479809	     -2.45094930	      9.99566121	     13.00014218	     -8.16755841	     17.31239970	    -13.38272866	      0.00000000	     31.48734112	     -1.05571255	     -0.17512817	    -49.30989419	      5.41365276	    -13.75383787	      0.00000000	    -18.11244640	      2.69277843	      1.05238958
      6.58000000	     -0.94734196	     -3.69635197	     -3.48960626	      2.35988503	      0.70601377	     -0.26464866	     -3.45463382	      9.84205227	     13.38463228	     -7.85655696	     17.79168917	    -13.19878953	      0.00000000	     31.27083187	     -1.21493429	      0.02973455	    -44.82165741	      5.40491885	    -14.22866601	      0.00000000	    -18.38878857	      2.67050903	      1.36482698
      6.59000000	     -1.01217943	     -3.71058984	     -3.91133808	      2.37014307	      0.70515360	     -0.26450589	     -4.49211179	      9.73069365	     13.71493885	     -7.55919594	     18.24758633	    -13.03255531	      0.00000000	     30.74824752	     -1.38849572	      0.43103128	    -39.88693251	      5.34730067	    -14.72284477	      0.00000000	    -18.60913604	      2.68117624	      1.59345826
      6.60000000	     -1.00162899	     -3.77332493	     -4.28875707	      2.38058274	      0.70422518	     -0.26445464	     -5.64694589	      9.64097764	     14.04630249	     -7.23479098	     18.63426396	    -12.85582911	      0.00000000	     29.84855322	     -1.56320071	      1.11624716	    -34.52215297	      5.16536007	    -15.31911839	      0.00000000	    -18.89870742	      2.76120476	      1.78959912
      6.61000000	     -0.98736489	     -3.91965412	     -4.67076302	      2.39125908	      0.70307112	     -0.26437216	     -6.81029613	      9.63721075	     14.37881841	     -6.96389834	     19.00298845	    -12.78167493	      0.00000000	     28.66199978	     -1.81899235	      2.12303533	    -28.79456184	      4.78035735	    -16.27419887	      0.00000000	    -19.12434105	      2.91121113	      2.07394801
      6.62000000	     -1.07240610	     -4.17770717	     -5.14902025	      2.40224580	      0.70161808	     -0.26421336	     -7.91156552	      9.71499176	     14.98029995	     -6.71864071	     19.32126606	    -12.62057683	      0.00000000	     27.32628515	     -2.26726248	      3.42224324	    -22.82420809	      4.02914763	    -17.65242684	      0.00000000	    -19.15413923	      3.19495886	      2.47966445
      6.63000000	     -0.76034643	     -4.52707394	     -5.47899108	      2.41357431	      0.70036022	     -0.26406097	     -9.48847359	      9.86033658	     15.51473861	     -6.46578885	     19.53559096	    -12.62599323	      0.00000000	     25.34260105	     -2.80191084	      5.35236909	    -16.69305664	      2.85783284	    -19.55415148	      0.00000000	    -19.62590152	      3.49252623	      2.77878530
      6.64000000	     -0.65312439	     -5.13961869	     -5.93115273	      2.42509173	      0.69861106	     -0.26361650	    -10.83370081	     10.28926174	     16.28121123	     -6.37093481	     19.63221180	    -12.64014948	      0.00000000	     23.59462681	     -3.82832040	      7.08539989	    -10.88965955	      1.62153583	    -21.43158578	      0.00000000	    -19.81184028	      4.05583446	      3.37290475
      6.65000000	     -0.67485402	     -5.96167663	     -6.30646656	      2.43678730	      0.69652555	     -0.26319007	    -12.02344034	     10.95611347	     17.00490392	     -6.40692180	     19.61989134	    -12.58280317	      0.00000000	     22.18282030	     -5.13431485	      8.23619832	     -5.76043485	      0.80699767	    -22.47592935	      0.00000000	    -19.81733650	      4.89150703	      4.01483575
      6.66000000	     -0.77357910	     -6.78929221	     -6.57327435	      2.44866125	      0.69430065	     -0.26289042	    -13.04158727	     11.65429602	     17.59529665	     -6.65331034	     19.63640981	    -12.40908150	      0.00000000	     21.09838793	     -6.38204051	      8.87835124	     -1.46650974	      0.62119000	    -22.47117801	      0.00000000	    -19.70147240	      5.73473039	      4.50380206
      6.67000000	     -0.86333446	     -7.49347357	     -6.80468239	      2.46078381	      0.69224184	     -0.26278096	    -13.97053687	     12.20432634	     18.03566055	     -7.09068811	     19.68625351	    -11.98785042	      0.00000000	     20.19643167	     -7.37993583	      9.19749766	      1.97564561	      0.83591120	    -21.86496614	      0.00000000	    -19.54635301	      6.44853604	      4.93079085
